<svg id="Layer_1" data-name="Layer 1" xmlns="http://www.w3.org/2000/svg" viewBox="0 0 652.19 296.17"><defs><style>.cls-1{fill:#1d1d1b;}</style></defs><path class="cls-1" d="M132.4,231.92,93.53,137.19h22.28l25.83,64.15,25.68-64.15h22.29l-38.73,94.73Z"/><path class="cls-1" d="M208.52,134.61A11.49,11.49,0,1,1,197,146.16,11.46,11.46,0,0,1,208.52,134.61Zm-10.06,97.31v-68.5h20.25v68.5Z"/><path class="cls-1" d="M238.69,209.09c3.81,4.48,11,7.47,18.76,7.47,6.93,0,10.32-1.9,10.32-5.57a3.72,3.72,0,0,0-2.31-3.26,35.53,35.53,0,0,0-8.29-2.72c-4.07-.95-7.2-1.9-9.24-2.58-10.46-3.67-15.76-9.92-15.76-19,0-6.93,2.58-12.37,7.74-16.17s11.42-5.84,18.89-5.84c9.65,0,17.4,3,23.52,8.83l-9.65,13.32c-3.67-3.4-8.57-5-14.41-5-4.35,0-6.79,1.77-6.79,4.35,0,1.77.68,2.72,2.85,3.67,2.58,1.09,8.29,2,15.9,4.75,11.28,3.81,16.85,10.33,16.85,19.44,0,14-10.05,23.1-30.17,23.1-13.32,0-23.24-4.07-29.9-12.23Z"/><path class="cls-1" d="M359.66,174l-12.78,12.64a20.81,20.81,0,0,0-15.77-7.06c-9.92,0-17.53,7.61-17.53,17.94s7.75,17.8,17.53,17.8a20.79,20.79,0,0,0,15.77-7.07l12.78,12.64a36.93,36.93,0,0,1-28.55,12.78c-10.6,0-19.57-3.4-26.9-10.33a36.09,36.09,0,0,1,0-51.65,37.75,37.75,0,0,1,26.9-10.46A37,37,0,0,1,359.66,174Z"/><path class="cls-1" d="M368.77,231.92V137.19H389v94.73Z"/><path class="cls-1" d="M464.59,172a33.57,33.57,0,0,1,11.14,25.68,34.09,34.09,0,0,1-11.14,25.83,40,40,0,0,1-54,0,34.43,34.43,0,0,1-11-25.83,33.91,33.91,0,0,1,11-25.68,39.64,39.64,0,0,1,54,0ZM425,210.45a18.06,18.06,0,0,0,25.28,0,17.76,17.76,0,0,0,5.16-12.78A17.21,17.21,0,0,0,450.32,185,17.72,17.72,0,0,0,425,185a17.22,17.22,0,0,0-5.17,12.64A17.54,17.54,0,0,0,425,210.45Z"/><path class="cls-1" d="M485.66,163.42h20.53v39.15c0,8.69,5,12.63,12.5,12.63s12.5-3.94,12.5-12.63V163.42h20.52v40.91c0,9.52-3.12,16.85-9.51,21.88s-14.13,7.61-23.51,7.61-17.26-2.58-23.65-7.61-9.38-12.36-9.38-21.88Z"/><path class="cls-1" d="M616,172.39v-35.2h20.25v94.73H616v-9c-2,6-10.06,10.19-20.39,10.19A32.4,32.4,0,0,1,571.29,223a36,36,0,0,1-9.65-25.28c0-9.92,3.26-18.34,9.65-25.14a32.06,32.06,0,0,1,24.33-10.33C606,162.2,614,166.41,616,172.39Zm-4.08,37.51a16.36,16.36,0,0,0,5.3-12.23,15.88,15.88,0,0,0-5.3-12.09,17.1,17.1,0,0,0-12.64-5,16.71,16.71,0,0,0-12.37,5,16.1,16.1,0,0,0-5,12.09,16.59,16.59,0,0,0,5,12.23,17.11,17.11,0,0,0,12.37,4.9A17.52,17.52,0,0,0,611.93,209.9Z"/><path class="cls-1" d="M302.63,56.21a111.79,111.79,0,0,0-175.27,2,111.87,111.87,0,0,0-11.56,223.1l12.38-.22L152,257.38H115.8v0a88.11,88.11,0,0,1-3.12-174.09A85.71,85.71,0,0,1,127.8,82a87.64,87.64,0,0,1,11.64.78,88.15,88.15,0,0,1,164.11,35.55h23.81a110,110,0,0,0-7.9-33.75,88.38,88.38,0,0,1,42.67,33.75h27.31A112,112,0,0,0,302.63,56.21Z"/><polygon class="cls-1" points="166.41 257.38 142.63 281.12 167.36 281.12 191.13 257.38 166.41 257.38"/><polygon class="cls-1" points="205.59 257.38 181.81 281.12 206.57 281.12 230.31 257.38 205.59 257.38"/><polygon class="cls-1" points="244.76 257.38 221.02 281.12 245.75 281.12 269.53 257.38 244.76 257.38"/><polygon class="cls-1" points="260.2 281.12 284.93 281.12 308.7 257.38 283.94 257.38 260.2 281.12"/></svg>